# xmcd
#
# Track frame offsets:
#       150
#       11987
#       24785
#       34827
#       54240
#       67465
#       82185
#       95962
#       113332
#       128160
#       141085
#       154492
#       168130
#       176970
#       191505
#
# Disc length: 2826 seconds
#
# Revision: 1
# Processed by: cddbd v1.5.1PL0 Copyright (c) Steve Scherf et al.
# Submitted via: MusiCat 1.1
#
DISCID=d20b080f
DTITLE=Jair Rodrigues - Sem limite cd 2
DYEAR=1900
DGENRE=
TTITLE0=Carinhoso
TTITLE1=Gente humilde
TTITLE2=Deixa isso prá lá
TTITLE3=Não deixe o samba morrer/Leva meu samba/É luxo só
TTITLE4=O pequeno burguês
TTITLE5=O conde
TTITLE6=Ciúme, inveja e rancor
TTITLE7=Luzes do Prazer
TTITLE8=Calelos brancos
TTITLE9=Bloco da solidão
TTITLE10=Molambo
TTITLE11=Mestre sala do amor
TTITLE12=Se acaso você chegasse
TTITLE13=Festa para um rei negro
TTITLE14=Foi um rio que passou em minha vida
EXTD=\n\n
EXTT0=
EXTT1=
EXTT2=
EXTT3=
EXTT4=
EXTT5=
EXTT6=
EXTT7=
EXTT8=
EXTT9=
EXTT10=
EXTT11=
EXTT12=
EXTT13=
EXTT14=
PLAYORDER=
